<?xml version="1.0"?>
<svg xmlns="http://www.w3.org/2000/svg" id="Capa_1" enable-background="new 0 0 512.007 512.007" height="512px" viewBox="0 0 512.007 512.007" width="512px" class=""><g><path d="m455.171 483.056c-.154-21.776-6.148-43.286-17.334-62.203-11.168-18.886-27.282-34.797-46.601-46.013-19.116-11.099-36.195-19.399-50.986-24.799 10.786-9.998 17.095-18.3 17.749-19.175 28.772-38.466 28.935-92.03 28.927-94.271l-.008-25.189h13.016c15.164 0 27.5-12.337 27.5-27.5v-10c0-14.207-10.83-25.932-24.667-27.354-7.524-54.252-47.964-102.31-100.032-119.124-.361-3.62-1.82-7.27-4.323-10.678-7.255-9.882-21.712-16.275-37.729-16.684-3.395-.088-6.834-.088-10.223 0-16.018.409-30.476 6.802-37.73 16.684-2.501 3.407-3.96 7.055-4.321 10.674-15.383 5.131-29.744 12.716-42.761 22.604-3.298 2.506-3.941 7.211-1.436 10.51 2.519 3.317 7.239 3.925 10.509 1.436 11.093-8.427 23.27-14.989 36.282-19.579l10.533 43.906c3.534 13.185 16.911 22.567 31.753 22.313 15.876 1.558 32.513-7.233 36.319-22.313l10.53-43.895c46.101 16.205 79.393 55.834 87.418 104.001h-263.973c3.709-22.095 12.903-42.906 26.876-60.613 2.566-3.251 2.01-7.968-1.242-10.533-3.251-2.564-7.967-2.01-10.534 1.242-16.093 20.394-26.488 44.494-30.308 70.05-13.838 1.422-24.667 13.148-24.667 27.354v10c0 15.163 12.336 27.5 27.5 27.5h13.057l-.05 25.179c-.004 2.234.22 55.151 28.084 93.162.67.914 7.264 9.766 18.564 20.284-8.193 2.988-17.097 6.862-26.634 11.607-3.708 1.846-5.219 6.348-3.373 10.057 1.306 2.625 3.943 4.146 6.688 4.158v121.146h-30v-102.702c.979-.719 1.969-1.426 2.975-2.117 3.414-2.346 4.279-7.015 1.933-10.429-2.347-3.414-7.015-4.28-10.429-1.933-34.867 23.962-55.511 63.005-55.222 104.438.107 15.297 13.009 27.743 28.762 27.743h340.854c15.608.364 29.598-13.306 28.754-28.944zm-180.113-400.409c-2.541 8.472-11.793 11.606-19.499 10.937-7.681.673-16.951-2.491-19.475-10.937l-12.602-52.531c-.025-.104-.053-.21-.083-.313-.293-1.024.225-2.546 1.421-4.176 3.687-5.022 13.163-10.237 26.026-10.565 3.135-.082 6.313-.082 9.448 0h.005c12.858.328 22.333 5.543 26.021 10.565 1.197 1.63 1.715 3.151 1.422 4.176-.03.104-.058.209-.083.313zm118.54 311.618v102.735h-30v-120.195c9.475 4.984 20.816 10.815 30 17.46zm-229.2-73.388c-24.906-33.975-25.182-83.772-25.182-84.264l.05-25.208h165.306c4.142 0 7.5-3.357 7.5-7.5s-3.358-7.5-7.5-7.5h-193.364c-6.893 0-12.5-5.607-12.5-12.5v-10c0-6.893 5.607-12.5 12.5-12.5h288.727c6.893 0 12.5 5.607 12.5 12.5v10c0 6.893-5.607 12.5-12.5 12.5h-60.363c-4.142 0-7.5 3.357-7.5 7.5s3.358 7.5 7.5 7.5h32.348l.008 25.21c.001.505-.221 50.882-25.939 85.266-.379.508-38.563 50.754-90.42 50.776-.013 0-.021 0-.034 0-52.4-.002-90.761-51.268-91.137-51.78zm-1.853 140.123h43.026c4.142 0 7.5-3.357 7.5-7.5s-3.358-7.5-7.5-7.5h-43.026v-76.407c7.888-3.502 15.173-6.266 21.769-8.247 17.906 13.551 42.413 26.314 71.218 26.312h.042c28.774-.012 53.335-12.845 71.195-26.316 6.645 1.997 13.936 4.764 21.828 8.271v76.387h-108.026c-4.142 0-7.5 3.357-7.5 7.5s3.358 7.5 7.5 7.5h108.026v36h-186.052zm-90.743 23.153c-.2-28.643 11.009-56.005 30.743-76.672v89.519h-16.982c-7.539 0-13.712-5.763-13.761-12.847zm364.677 8.733c-2.634 2.652-6.207 4.113-10.062 4.113h-17.819v-89.704c19.741 20.391 31.373 47.532 31.574 75.867.192 3.601-1.061 7.099-3.693 9.724z" data-original="#000000" class="active-path" data-old_color="#000000" fill="#FFFFFF"/></g> </svg>
