<svg id="Capa_1" enable-background="new 0 0 512 512" height="512" viewBox="0 0 512 512" width="512" xmlns="http://www.w3.org/2000/svg"><g><path d="m18.228 225.48h475.543c9.873 0 17.877-8.004 17.877-17.877v-80.07c0-9.873-8.004-17.877-17.877-17.877h-475.543c-9.873 0-17.877 8.004-17.877 17.877v80.07c0 9.873 8.004 17.877 17.877 17.877z" fill="#b16e3d"/><path d="m18.228 460.806h475.543c9.873 0 17.877-8.004 17.877-17.877v-80.07c0-9.873-8.004-17.877-17.877-17.877h-475.543c-9.873 0-17.877 8.004-17.877 17.877v80.07c0 9.873 8.004 17.877 17.877 17.877z" fill="#b16e3d"/><g><g><g><g><path d="m89.263 491.048v-410.659c0-3.314-1.017-6.549-2.914-9.267l-17.296-24.784c-2.531-3.627-6.674-5.788-11.096-5.788l-21.335 30.572c-1.897 2.718-2.914 5.952-2.914 9.267v410.659c0 11.572 9.381 20.952 20.953 20.952h13.649c11.572 0 20.953-9.381 20.953-20.952z" fill="#ce9875"/><path d="m146.619 71.122-46.563-66.722c-4.094-5.866-12.777-5.866-16.87 0l-25.229 36.151 21.335 30.571c1.897 2.718 2.914 5.952 2.914 9.267v410.659c0 11.572-9.381 20.953-20.953 20.953h67.328c11.572 0 20.952-9.381 20.952-20.953v-410.659c0-3.314-1.017-6.549-2.914-9.267z" fill="#c6865c"/></g></g></g><g><g><g><path d="m253.68 491.048v-410.659c0-3.314-1.017-6.549-2.914-9.267l-17.296-24.784c-2.531-3.627-6.674-5.788-11.096-5.788l-21.335 30.571c-1.897 2.718-2.914 5.952-2.914 9.267v410.659c0 11.572 9.381 20.952 20.953 20.952h13.649c11.572.001 20.953-9.38 20.953-20.951z" fill="#ce9875"/><path d="m311.036 71.122-46.563-66.722c-4.094-5.866-12.777-5.866-16.87 0l-25.228 36.151 21.335 30.571c1.897 2.718 2.914 5.952 2.914 9.267v410.659c0 11.572-9.381 20.953-20.952 20.953h67.328c11.572 0 20.953-9.381 20.953-20.953v-410.659c-.003-3.314-1.02-6.549-2.917-9.267z" fill="#c6865c"/></g></g></g><g><g><g><path d="m418.097 491.047v-410.658c0-3.314-1.017-6.549-2.914-9.267l-17.296-24.784c-2.531-3.627-6.674-5.787-11.096-5.787l-21.335 30.572c-1.897 2.718-2.914 5.952-2.914 9.266v410.659c0 11.572 9.381 20.952 20.952 20.952h13.649c11.573 0 20.954-9.381 20.954-20.953z" fill="#ce9875"/><path d="m475.453 71.122-46.563-66.722c-4.094-5.866-12.777-5.866-16.87 0l-25.228 36.151 21.335 30.571c1.897 2.718 2.914 5.952 2.914 9.267v410.659c0 11.572-9.381 20.953-20.953 20.953h67.328c11.572 0 20.953-9.381 20.953-20.953v-410.659c-.002-3.314-1.019-6.549-2.916-9.267z" fill="#c6865c"/></g></g></g></g><g><g><g><circle cx="420.455" cy="402.339" fill="#f2f9ff" r="19.22"/></g></g></g><g><g><g><circle cx="420.455" cy="167.568" fill="#f2f9ff" r="19.22"/></g></g></g><g><g><g><circle cx="256" cy="402.339" fill="#f2f9ff" r="19.22"/></g></g></g><g><g><g><circle cx="256" cy="167.568" fill="#f2f9ff" r="19.22"/></g></g></g><g><g><g><circle cx="91.621" cy="402.339" fill="#f2f9ff" r="19.22"/></g></g></g><g><g><g><circle cx="91.621" cy="167.568" fill="#f2f9ff" r="19.22"/></g></g></g></g></svg>