<svg id="Capa_1" enable-background="new 0 0 512 512" height="512" viewBox="0 0 512 512" width="512" xmlns="http://www.w3.org/2000/svg"><g><path d="m416 416.861v64h-64v-84.016z" fill="#a05f4b"/><path d="m160 396.845v84.016h-64v-64z" fill="#c9885b"/><path d="m128 416.861h-128v-193.722c0-70.692 57.307-128 128-128 5.598 0 11.112.359 16.52 1.056z" fill="#00cc76"/><path d="m384 416.861h128v-193.722c0-70.692-57.307-128-128-128-5.598 0-11.112.359-16.52 1.056z" fill="#00aa95"/><path d="m288 416.861-52.016-20.016 20.016 84.016h32z" fill="#a05f4b"/><path d="m224 416.861v64h32v-84.016z" fill="#c9885b"/><path d="m384 159.139c0-70.692-57.307-128-128-128l-20.016 224.003 20.016 161.719h128z" fill="#00cc76"/><path d="m256 31.139c-70.692 0-128 57.307-128 128v257.723h128z" fill="#a5e887"/></g></svg>