<svg id="Layer_1" enable-background="new 0 0 497 497" height="512" viewBox="0 0 497 497" width="512" xmlns="http://www.w3.org/2000/svg"><g><g><g><g><g><path d="m212.903 479.445-156.728-122.351c-7.428-5.798-8.731-16.521-2.911-23.942l256.186-326.608c5.812-7.41 16.53-8.722 23.947-2.932l156.729 122.351c7.428 5.798 8.731 16.521 2.911 23.942l-256.186 326.608c-5.813 7.41-16.53 8.722-23.948 2.932z" fill="#57ad7b"/></g></g></g></g><g><g><g><g><path d="m113.949 489.452-110.725-164.993c-5.25-7.823-3.152-18.423 4.684-23.67l345.134-231.069c7.827-5.24 18.417-3.155 23.661 4.659l110.725 164.993c5.25 7.823 3.152 18.423-4.684 23.67l-345.134 231.069c-7.827 5.24-18.417 3.155-23.661-4.659z" fill="#81cda1"/><path d="m487.428 239.372-110.724-164.993c-5.244-7.814-15.834-9.899-23.661-4.659l-13.431 8.992 107.817 160.66c5.25 7.823 3.152 18.423-4.684 23.67l-331.704 222.077 2.908 4.333c5.244 7.814 15.834 9.899 23.661 4.659l345.134-231.069c7.837-5.247 9.934-15.847 4.684-23.67z" fill="#60bf88"/><ellipse cx="245.326" cy="281.915" fill="#29795d" rx="90.929" ry="91.032" transform="matrix(.058 -.998 .998 .058 -50.288 510.55)"/></g><g fill="#29795d"><path d="m55.139 269.168c22.741 33.887 13.677 79.77-20.245 102.481l-31.684-47.212c-5.243-7.813-3.14-18.4 4.698-23.647z"/><path d="m82.352 442.368c33.994-22.759 79.949-13.797 102.642 20.019l-47.362 31.709c-7.837 5.247-18.441 3.167-23.684-4.645z"/><path d="m435.536 294.695c-22.741-33.887-13.677-79.77 20.245-102.481l31.684 47.212c5.243 7.813 3.14 18.4-4.698 23.647z"/><path d="m408.323 121.495c-33.994 22.76-79.949 13.797-102.642-20.019l47.362-31.709c7.837-5.247 18.441-3.167 23.684 4.645z"/></g></g><g><g><path d="m359.549 212.948c-2.419 0-4.793-1.168-6.239-3.329-2.304-3.442-1.382-8.1 2.06-10.405l35.307-23.638c3.441-2.303 8.101-1.382 10.405 2.06s1.382 8.1-2.06 10.405l-35.307 23.638c-1.281.858-2.732 1.269-4.166 1.269z" fill="#29795d"/></g><g><path d="m95.812 389.522c-2.419 0-4.792-1.168-6.239-3.329-2.304-3.442-1.382-8.1 2.06-10.404l35.306-23.638c3.441-2.305 8.099-1.382 10.405 2.06 2.304 3.442 1.382 8.1-2.06 10.404l-35.306 23.638c-1.282.858-2.732 1.269-4.166 1.269z" fill="#29795d"/></g></g></g><path d="m280.379 321.779c10.814-11.145 11.166-26.564 6.246-37.47-6.426-14.24-20.589-20.874-36.087-16.898-1.864.478-3.775.954-5.699 1.407l-17.015-25.354c4.274-1.388 7.605-1.026 7.934-.986 4.074.587 7.853-2.21 8.48-6.278.633-4.094-2.173-7.925-6.267-8.558-.519-.079-9.023-1.287-18.698 3.081l-3.3-4.917c-2.309-3.439-6.966-4.357-10.407-2.048-3.439 2.308-4.356 6.967-2.048 10.407l3.599 5.364c-.588.63-1.171 1.281-1.745 1.977-6.61 8.029-8.06 19.23-3.781 29.231 3.911 9.145 11.788 15.227 20.558 15.873 4.449.327 9.463.004 15.839-1.08l21.895 32.627c-4.339 2.357-7.83 3.091-14.382 3.17-4.142.05-7.459 3.448-7.408 7.59.049 4.111 3.397 7.41 7.497 7.41h.093c10.22-.124 16.122-1.946 22.583-5.678l3.697 5.509c1.447 2.157 3.818 3.322 6.234 3.322 1.437 0 2.89-.413 4.173-1.273 3.439-2.308 4.356-6.967 2.048-10.407zm-57.126-50.127c-3.108-.229-6.197-2.903-7.869-6.813-1.435-3.354-1.935-8.143.496-12.256l12.763 19.018c-1.923.141-3.74.173-5.39.051zm31.012 10.289c12.344-3.164 17.423 5.735 18.688 8.538 2.373 5.258 2.55 12.394-1.319 18.267l-17.898-26.671c.178-.046.347-.088.529-.134z" fill="#81cda1"/></g></g></svg>