<?xml version="1.0"?>
<svg xmlns="http://www.w3.org/2000/svg" id="Capa_1" enable-background="new 0 0 512.504 512.504" height="512px" viewBox="0 0 512.504 512.504" width="512px" class=""><g><g><path d="m507.822 369.583c0-7.433-2.431-14.606-6.893-20.479 7.388-6.792 11.574-16.269 11.574-26.4 0-19.8-16.108-35.908-35.908-35.908h-7.761c-4.143 0-7.5 3.357-7.5 7.5s3.357 7.5 7.5 7.5h7.761c11.529 0 20.908 9.379 20.908 20.908 0 6.438-2.905 12.422-7.972 16.419-2.647 2.088-4.333 5.212-4.625 8.568-.293 3.381.841 6.777 3.113 9.317 3.097 3.462 4.802 7.928 4.802 12.574 0 6.119-2.99 11.887-7.999 15.428-5.912 4.18-7.513 12.101-3.644 18.034 1.799 2.759 2.75 5.969 2.75 9.282 0 7.924-5.606 14.914-13.323 16.619-4.186.92-7.223 4.714-7.223 9.02 0 3.349 1.834 6.438 4.783 8.062 5.568 3.07 8.947 8.921 8.819 15.269-.186 9.193-8.083 16.673-17.605 16.673h-146.527c-5.429 0-10.77-1.459-15.444-4.218l-11.831-6.984v-170.033l9.547-20.098c4.056-8.538 11.081-15.276 19.781-18.975l7.55-3.208c.289-.122.57-.263.841-.421l46.053-26.814c1.396-.813 2.492-2.055 3.126-3.541l12.23-28.693c1.978-4.639 6.514-7.637 11.616-7.637 8.811 0 16.669 5.266 20.02 13.413 1.37 3.332 2.064 6.849 2.064 10.453v31.657c0 8.694-1.832 17.113-5.444 25.022l-6.952 15.223c-1.876 4.104-1.539 8.819.9 12.616 2.438 3.797 6.589 6.063 11.102 6.063h18.863c4.143 0 7.5-3.357 7.5-7.5s-3.357-7.5-7.5-7.5h-16.056l5.787-12.67c4.512-9.88 6.8-20.396 6.8-31.255v-31.657c0-5.57-1.073-11.006-3.191-16.157-5.672-13.795-18.976-22.709-33.952-22.709-11.064 0-21.018 6.577-25.355 16.756l-11.255 26.404-43.496 25.325-7.116 3.024c-12.08 5.134-21.833 14.489-27.464 26.344l-.914 1.924c-5.024-7.276-13.417-12.057-22.909-12.057h-73.783c-8.85 0-16.05 7.2-16.05 16.05v150.43c0 4.143 3.357 7.5 7.5 7.5s7.5-3.357 7.5-7.5v-150.43c0-.579.471-1.05 1.05-1.05h51.67v212.278h-51.67c-.579 0-1.05-.471-1.05-1.049v-27.785c0-4.143-3.357-7.5-7.5-7.5s-7.5 3.357-7.5 7.5v27.787c0 8.85 7.2 16.049 16.05 16.049h73.781c12.262 0 22.69-7.977 26.386-19.011l5.646 3.333c6.983 4.121 14.96 6.3 23.068 6.3h146.529c17.629 0 32.254-14.073 32.602-31.37.168-8.29-2.844-16.128-8.206-22.077 9.167-5.739 15.153-15.97 15.153-27.194 0-5.632-1.465-11.11-4.252-15.953 8.259-6.4 13.145-16.306 13.145-26.791zm-237.246 104.938c0 7.072-5.753 12.825-12.825 12.825h-7.111v-212.278h7.111c7.072 0 12.825 5.753 12.825 12.825z" data-original="#000000" class="active-path" data-old_color="#000000" fill="#FFFFFF"/><path d="m194.511 94.16 3.088 1.313c8.701 3.698 15.727 10.437 19.782 18.975l9.547 20.098v103.023c0 4.143 3.357 7.5 7.5 7.5s7.5-3.357 7.5-7.5v-111.865c0-7.072 5.753-12.825 12.825-12.825h7.111v125.646c0 4.143 3.357 7.5 7.5 7.5s7.5-3.357 7.5-7.5v-125.647h51.67c.579 0 1.05.471 1.05 1.05v88.683c0 4.143 3.357 7.5 7.5 7.5s7.5-3.357 7.5-7.5v-88.683c0-8.85-7.2-16.05-16.05-16.05h-73.781c-9.492 0-17.885 4.781-22.909 12.057l-.914-1.924c-5.631-11.854-15.384-21.21-27.465-26.344l-3.089-1.313c-3.81-1.619-8.215.157-9.835 3.97-1.62 3.812.157 8.217 3.97 9.836z" data-original="#000000" class="active-path" data-old_color="#000000" fill="#FFFFFF"/><path d="m96.164 38.572c3.351-8.148 11.208-13.414 20.079-13.414 5.043 0 9.579 2.998 11.557 7.637l12.23 28.694c.634 1.486 1.729 2.729 3.126 3.541l22.059 12.844c3.577 2.084 8.171.871 10.255-2.708s.872-8.171-2.708-10.255l-19.908-11.592-11.255-26.405c-4.338-10.179-14.291-16.756-25.415-16.756-14.917 0-28.221 8.914-33.893 22.711-2.118 5.15-3.191 10.586-3.191 16.155v31.657c0 10.86 2.288 21.376 6.8 31.255l5.787 12.67h-55.779c-19.8 0-35.908 16.108-35.908 35.908 0 10.132 4.187 19.608 11.574 26.4-4.462 5.872-6.893 13.047-6.893 20.479 0 10.484 4.887 20.39 13.145 26.791-2.787 4.844-4.252 10.322-4.252 15.953 0 11.226 5.986 21.456 15.152 27.194-5.361 5.948-8.373 13.786-8.205 22.078.348 17.297 14.973 31.369 32.602 31.369h92.297c4.143 0 7.5-3.357 7.5-7.5s-3.357-7.5-7.5-7.5h-92.297c-9.522 0-17.42-7.479-17.605-16.672-.128-6.349 3.251-12.198 8.825-15.271 2.946-1.629 4.777-4.717 4.777-8.061 0-4.301-3.034-8.093-7.215-9.018-7.725-1.706-13.331-8.696-13.331-16.621 0-3.313.951-6.523 2.75-9.282 3.87-5.935 2.269-13.856-3.643-18.033-5.01-3.542-8-9.31-8-15.429 0-4.646 1.705-9.112 4.803-12.574 2.271-2.54 3.405-5.937 3.112-9.317-.292-3.356-1.978-6.48-4.625-8.569-5.066-3.996-7.972-9.98-7.972-16.418 0-11.529 9.379-20.908 20.908-20.908h58.586c4.513 0 8.662-2.267 11.102-6.063s2.776-8.513.901-12.616l-6.953-15.224c-3.611-7.907-5.443-16.326-5.443-25.021v-31.657c0-3.604.694-7.12 2.064-10.452z" data-original="#000000" class="active-path" data-old_color="#000000" fill="#FFFFFF"/><path d="m400.542 86.392c4.517 2.963 8.139 6.693 11.072 11.405 2.28 3.662 6.213 5.856 10.52 5.867h.033c4.327 0 8.292-2.193 10.609-5.873 2.952-4.687 7.038-8.667 12.144-11.831 3.669-2.274 5.865-6.209 5.876-10.525.011-4.345-2.185-8.318-5.873-10.628 0-.001-.001-.001-.001-.001-4.582-2.869-8.285-6.448-11.321-10.941-2.462-3.644-6.566-5.7-10.931-5.461-4.413.225-8.298 2.69-10.393 6.595-2.217 4.132-5.686 7.369-10.604 9.898-3.985 2.048-6.506 5.941-6.743 10.415-.237 4.477 1.861 8.619 5.612 11.08zm22.931-20.976c2.978 3.785 6.428 7.115 10.311 9.952-4.521 3.24-8.395 7.031-11.573 11.322-2.896-3.989-6.284-7.495-10.128-10.476 4.673-2.944 8.485-6.558 11.39-10.798z" data-original="#000000" class="active-path" data-old_color="#000000" fill="#FFFFFF"/><path d="m97.034 387.945c-6.944-4.349-12.798-10.007-17.399-16.816-2.899-4.291-7.706-6.711-12.874-6.433-5.204.265-9.787 3.175-12.261 7.784-3.544 6.604-9.034 11.751-16.785 15.736-4.697 2.415-7.667 7.005-7.945 12.276-.278 5.275 2.194 10.156 6.614 13.055 6.861 4.501 12.598 10.406 17.048 17.554 2.688 4.315 7.319 6.9 12.391 6.913h.039c5.106 0 9.785-2.591 12.522-6.937 4.548-7.223 10.827-13.347 18.661-18.202 4.32-2.678 6.907-7.312 6.92-12.396.012-5.123-2.579-9.81-6.931-12.534zm-31.133 34.806c-5.473-8.662-12.479-15.873-20.84-21.448 10.004-5.247 17.548-12.419 22.442-21.338 5.648 8.232 12.771 15.108 21.18 20.447-9.454 5.946-17.112 13.454-22.782 22.339z" data-original="#000000" class="active-path" data-old_color="#000000" fill="#FFFFFF"/></g></g> </svg>
