<?xml version="1.0"?>
<svg xmlns="http://www.w3.org/2000/svg" xmlns:xlink="http://www.w3.org/1999/xlink" version="1.1" id="Capa_1" x="0px" y="0px" viewBox="0 0 496.968 496.968" style="enable-background:new 0 0 496.968 496.968;" xml:space="preserve" width="512px" height="512px"><g><g>
	<g>
		<g>
			<path d="M248.484,40c-66.168,0-120,53.832-120,120s53.832,120,120,120c66.168,0,120-53.832,120-120S314.652,40,248.484,40z      M248.484,264c-57.344,0-104-46.656-104-104s46.656-104,104-104s104,46.656,104,104S305.828,264,248.484,264z" data-original="#000000" class="active-path" data-old_color="#000000" fill="#FFFFFF"/>
			<path d="M248.484,72c-48.52,0-88,39.48-88,88s39.48,88,88,88s88-39.48,88-88S297.004,72,248.484,72z M248.484,232     c-39.704,0-72-32.304-72-72s32.296-72,72-72s72,32.304,72,72S288.188,232,248.484,232z" data-original="#000000" class="active-path" data-old_color="#000000" fill="#FFFFFF"/>
			<path d="M398.396,164.12c-1.704-2.464-1.704-5.784-0.008-8.24c6.344-9.168,8.552-20.648,6.08-31.488     c-2.472-10.84-9.448-20.216-19.128-25.728c-2.608-1.48-4.048-4.472-3.576-7.424c1.728-11.008-1.256-22.304-8.184-31     c-6.936-8.688-17.288-14.12-28.408-14.88c-2.936-0.2-5.592-2.32-6.448-5.136c-3.208-10.672-10.808-19.56-20.824-24.376     c-10.016-4.824-21.696-5.208-32.048-1.088c-2.736,1.104-6.048,0.344-8.032-1.832C270.292,4.712,259.596,0,248.484,0     c-11.112,0-21.808,4.712-29.344,12.936c-2,2.168-5.288,2.92-8.032,1.832c-10.352-4.136-22.032-3.744-32.048,1.088     c-10.016,4.824-17.608,13.704-20.824,24.376c-0.848,2.824-3.504,4.936-6.448,5.144c-11.12,0.76-21.472,6.184-28.408,14.88     c-6.928,8.696-9.912,19.992-8.184,31c0.472,2.96-0.968,5.944-3.568,7.424c-9.688,5.504-16.656,14.888-19.136,25.728     c-2.48,10.84-0.264,22.32,6.072,31.48c1.704,2.472,1.704,5.784,0.008,8.24c-6.344,9.168-8.552,20.648-6.08,31.488     c2.472,10.84,9.448,20.216,19.136,25.728c2.56,1.456,4.032,4.512,3.568,7.424c-1.728,11.008,1.256,22.304,8.184,31     c6.928,8.688,17.28,14.112,28.408,14.88c2.936,0.192,5.584,2.312,6.448,5.144c3.208,10.664,10.808,19.552,20.824,24.368     c10.008,4.84,21.704,5.224,32.048,1.088c2.728-1.096,6.04-0.344,8.032,1.832c7.528,8.208,18.224,12.92,29.344,12.92     c11.12,0,21.816-4.712,29.344-12.928c2-2.176,5.304-2.928,8.032-1.832c10.36,4.136,22.04,3.736,32.048-1.08     c10.016-4.824,17.608-13.712,20.824-24.376c0.856-2.832,3.504-4.944,6.456-5.144c11.12-0.776,21.472-6.192,28.4-14.88     c6.928-8.696,9.912-19.992,8.184-31c-0.464-2.912,1.008-5.968,3.568-7.424c9.688-5.504,16.656-14.888,19.136-25.728     C406.956,184.768,404.74,173.288,398.396,164.12z M385.228,173.208c3.848,5.576,5.152,12.256,3.648,18.832     c-1.504,6.576-5.568,12.04-11.448,15.384c-8.352,4.744-12.96,14.32-11.48,23.816c1.056,6.68-0.688,13.272-4.888,18.536     c-4.192,5.272-10.232,8.432-16.984,8.888c-9.584,0.656-17.888,7.28-20.664,16.488c-1.952,6.488-6.376,11.656-12.448,14.576     c-6.072,2.928-12.872,3.16-19.168,0.64c-8.936-3.576-19.28-1.184-25.768,5.88c-9.144,9.984-25.952,9.984-35.096,0     c-4.472-4.88-10.792-7.52-17.2-7.52c-2.88,0-5.792,0.536-8.56,1.64c-6.288,2.512-13.088,2.288-19.168-0.64     c-6.072-2.92-10.496-8.096-12.448-14.576c-2.776-9.2-11.08-15.832-20.656-16.488c-6.76-0.464-12.8-3.624-16.992-8.888     c-4.2-5.272-5.944-11.856-4.888-18.536c1.488-9.504-3.128-19.072-11.48-23.816c-5.872-3.344-9.944-8.808-11.448-15.384     c-1.504-6.576-0.2-13.256,3.648-18.832c5.456-7.904,5.456-18.52-0.008-26.432c-3.84-5.568-5.144-12.248-3.64-18.824     c1.504-6.576,5.568-12.04,11.456-15.384c8.344-4.752,12.952-14.328,11.472-23.816c-1.056-6.68,0.688-13.272,4.888-18.536     c4.2-5.272,10.232-8.432,16.984-8.896c9.584-0.656,17.888-7.28,20.664-16.48c1.952-6.48,6.376-11.664,12.448-14.584     c6.08-2.928,12.888-3.16,19.168-0.64c8.928,3.576,19.288,1.208,25.768-5.88c9.16-9.984,25.936-9.984,35.096,0     c6.48,7.088,16.832,9.448,25.768,5.88c6.28-2.504,13.096-2.28,19.168,0.64c6.072,2.92,10.496,8.104,12.448,14.584     c2.776,9.2,11.08,15.824,20.664,16.48c6.752,0.464,12.784,3.624,16.984,8.896c4.2,5.272,5.944,11.856,4.888,18.536     c-1.488,9.496,3.128,19.064,11.48,23.816c5.872,3.344,9.944,8.808,11.448,15.384c1.504,6.576,0.2,13.256-3.648,18.832     C379.772,154.688,379.772,165.312,385.228,173.208z" data-original="#000000" class="active-path" data-old_color="#000000" fill="#FFFFFF"/>
			<polygon points="224.484,120 240.484,120 240.484,216 256.484,216 256.484,104 224.484,104    " data-original="#000000" class="active-path" data-old_color="#000000" fill="#FFFFFF"/>
			<polygon points="347.804,289.928 366.9,436.376 338.412,426.872 323.684,318.92 307.828,321.08 322.26,426.904 286.14,463.032      267.66,333.664 251.82,335.928 274.828,496.968 330.652,441.16 386.068,459.624 363.66,287.864    " data-original="#000000" class="active-path" data-old_color="#000000" fill="#FFFFFF"/>
			<polygon points="210.828,463.032 174.708,426.904 189.14,321.08 173.284,318.92 158.556,426.872 130.068,436.376      149.164,289.928 133.308,287.864 110.9,459.624 166.316,441.16 222.14,496.968 245.148,335.936 229.308,333.672    " data-original="#000000" class="active-path" data-old_color="#000000" fill="#FFFFFF"/>
		</g>
	</g>
</g></g> </svg>
