<svg id="Capa_1" enable-background="new 0 0 512 512" height="512" viewBox="0 0 512 512" width="512" xmlns="http://www.w3.org/2000/svg"><g><path d="m242.093 427.638c-3.008 3.008-6.943 4.502-10.879 4.502-3.935 0-7.87-1.494-10.879-4.502-14.515-14.515-18.873-31.987-19.069-47.326-.268-20.171 6.676-36.654 7.18-37.839 3.369-7.809 12.424-11.394 20.222-8.035 7.778 3.358 11.373 12.383 8.046 20.171-.155.361-4.523 11.085-4.656 23.674-.113 9.323 2.091 19.666 10.034 27.609 6.007 6.005 6.007 15.741.001 21.746z" fill="#665e66"/><path d="m194.603 324.926-15.463 62.663-27.727 112.355h-109.33l28.137-114.026 15.053-60.992z" fill="#665e66"/><path d="m194.603 324.926-15.463 62.663c-31.634 1.313-70.087 1.508-108.92-1.671l15.053-60.992z" fill="#544f57"/><path d="m117.654 324.926-43.201 175.018h-32.372l43.19-175.018z" fill="#544f57"/><path d="m368.278 259.227v33.695l-31.634 12.511-22.58-30.066 22.58-28.65z" fill="#da4a54"/><path d="m368.278 276.957v15.965l-31.634 12.511-22.58-30.066z" fill="#d82e3d"/><g><path d="m136.676 122.681h44.876v160.609h-44.876z" fill="#665e66" transform="matrix(.931 -.364 .364 .931 -62.987 71.869)"/><path d="m137.433 126.695h22.832v160.609h-22.832z" fill="#544f57" transform="matrix(.931 -.364 .364 .931 -65.153 68.407)"/><g><path d="m171.761 180.813c-12.16 5.245-24.486 10.064-36.979 14.457-27.904 9.811-58.606-3.525-70.366-30.666-14.439-33.325-26.609-67.536-36.51-102.634 41.872-22.631 85.868-39.831 131.986-51.599 16.528 32.507 30.788 65.902 42.78 100.183 9.766 27.92-3.751 58.543-30.911 70.259z" fill="#da4a54"/><path d="m108.759 157.792c6.673 16.418 15.276 29.972 23.611 38.254-27.242 8.248-56.539-5.083-67.95-31.444-14.439-33.324-26.607-67.536-36.514-102.632 20.941-11.326 42.406-21.281 64.401-29.88-9.03 3.53-17.482 8.537-25.345 15.018 13.001 37.254 26.928 74.147 41.797 110.684z" fill="#d82e3d"/><path d="m156.129 1.262-131.637 51.463c-9.419 3.682-14.069 14.302-10.387 23.721 3.682 9.419 14.302 14.069 23.721 10.387l131.637-51.463c9.419-3.682 14.069-14.302 10.387-23.721-3.682-9.419-14.303-14.069-23.721-10.387z" fill="#f9f6f9"/><path d="m76.978 65.771c4.294 1.88 9.306 2.119 14.014.279l-53.163 20.784c-4.708 1.84-9.72 1.601-14.014-.279s-7.869-5.401-9.71-10.109c-3.681-9.415.972-20.043 10.388-23.724l53.163-20.784c-9.426 3.685-14.069 14.308-10.388 23.724 1.841 4.708 5.416 8.229 9.71 10.109z" fill="#e2dfe2"/></g></g><path d="m39.103 270.849h110.014v-30.004h-110.014c-8.285 0-15.002 6.717-15.002 15.002 0 8.286 6.717 15.002 15.002 15.002z" fill="#665e66"/><path d="m149.12 259.99v10.859h-110.017c-4.143 0-7.896-1.682-10.603-4.399-2.717-2.707-4.399-6.46-4.399-10.603 0-1.917.359-3.743 1.015-5.424.759 1.958 1.928 3.722 3.384 5.178 2.707 2.707 6.46 4.389 10.603 4.389z" fill="#544f57"/><path d="m236.715 354.609c-.155.361-4.523 11.085-4.656 23.674-8.89.711-19.275 1.432-30.792 2.029-.268-20.171 6.676-36.654 7.18-37.839 3.369-7.809 12.424-11.394 20.222-8.035 7.778 3.358 11.374 12.383 8.046 20.171z" fill="#544f57"/><path d="m336.643 242.02v64.438c0 11.126-8.478 20.459-19.563 21.418-12.816 1.102-31.616 1.123-55.444-3.266v12.352c0 15.185-11.62 27.836-26.754 29.144-37.014 3.194-107.036 7.17-175.193-.299-11.002-1.205-19.337-10.497-19.337-21.562v-25.456c0-11.981 9.704-21.685 21.685-21.685h28.32l25.26-59.606c3.76-8.88 12.002-15.051 21.593-16.163 22.942-2.648 57.474-6.933 103.214-6.253 16.339.237 34.109 1.112 53.302 2.915 7.829.732 15.885 1.617 24.178 2.689 10.713 1.38 18.739 10.528 18.739 21.334z" fill="#c3bec6"/><g fill="#b4acb7"><path d="m66.949 318.784v25.471c0 8.162 4.532 18.16 11.341 23.318-6.204-.502-12.418-1.087-18.611-1.764-10.992-1.2-19.329-10.49-19.329-21.554v-25.471c0-11.967 9.711-21.677 21.687-21.677h26.589c-11.967 0-21.677 9.711-21.677 21.677z"/><path d="m137.2 221.339c5.66-.656 12.018-1.405 19.073-2.164-6.245 4.174-11.331 11.885-14.059 18.324l-20.725 48.913c-2.747 6.483-9.105 10.695-16.147 10.695h-14.983l25.256-59.607c3.763-8.88 12.008-15.043 21.585-16.161z"/><path d="m298.773 235.469c0 18.08-14.659 32.739-32.739 32.739s-32.739-14.659-32.739-32.739c0-7.706 2.668-14.794 7.129-20.387 16.339.237 34.109 1.112 53.302 2.915 3.193 5.058 5.047 11.053 5.047 17.472z"/></g><circle cx="279.28" cy="235.468" fill="#f9f6f9" r="32.735"/><g fill="#da4a54"><path d="m414.836 355.98 1.274-2.207c4.493-7.783 14.245-10.757 22.317-6.807l24.829 12.15c8.893 4.352 12.24 15.326 7.29 23.901l-3.166 5.483c-4.951 8.575-16.128 11.163-24.343 5.637l-22.937-15.426c-7.457-5.015-9.757-14.948-5.264-22.731z"/><path d="m437.391 274.352v-2.548c0-8.987 6.958-16.439 15.924-17.054l27.577-1.892c9.878-.678 18.263 7.153 18.263 17.054v6.331c0 9.901-8.386 17.731-18.263 17.054l-27.577-1.892c-8.965-.614-15.924-8.066-15.924-17.053z"/><path d="m416.11 192.383-1.274-2.207c-4.493-7.783-2.193-17.715 5.264-22.731l22.937-15.427c8.216-5.526 19.393-2.937 24.343 5.637l3.166 5.483c4.951 8.575 1.603 19.548-7.29 23.901l-24.829 12.15c-8.071 3.951-17.823.977-22.317-6.806z"/></g><path d="m190.511 449.741c-48.849-1.399-97.697-1.399-146.546 0-12.083.346-22.009 9.626-23.218 21.653-.6 5.968-.6 11.936 0 17.904 1.209 12.027 11.135 21.307 23.218 21.653 48.849 1.399 97.697 1.399 146.546 0 12.083-.346 22.009-9.626 23.218-21.653.6-5.968.6-11.936 0-17.904-1.21-12.027-11.135-21.307-23.218-21.653z" fill="#c3bec6"/><path d="m81.667 511.744c-12.572-.164-25.133-.431-37.705-.8-12.079-.338-22.005-9.619-23.215-21.647-.595-5.968-.595-11.936 0-17.904 1.21-12.028 11.136-21.308 23.215-21.657 12.561-.359 25.133-.626 37.694-.79-10.121 2.543-17.852 11.218-18.939 21.985-.636 6.275-.636 12.551 0 18.816 1.088 10.779 8.83 19.464 18.95 21.997z" fill="#b4acb7"/><path d="m279.281 243.195c-4.268 0-7.726-3.459-7.726-7.726v-.513c0-4.267 3.459-7.726 7.726-7.726 4.268 0 7.726 3.459 7.726 7.726v.513c0 4.266-3.459 7.726-7.726 7.726z" fill="#544f57"/></g></svg>