<?xml version="1.0"?>
<svg xmlns="http://www.w3.org/2000/svg" xmlns:xlink="http://www.w3.org/1999/xlink" version="1.1" id="Capa_1" x="0px" y="0px" viewBox="0 0 512 512" style="enable-background:new 0 0 512 512;" xml:space="preserve" width="512px" height="512px" class=""><g><g>
	<g>
		<path d="M256.276,41.873c-4.151,0-7.515,3.364-7.515,7.515v1.106c0,4.151,3.365,7.516,7.515,7.516    c4.151,0,7.515-3.364,7.515-7.515v-1.107C263.791,45.237,260.426,41.873,256.276,41.873z" data-original="#000000" class="active-path" data-old_color="#000000" fill="#008435"/>
	</g>
</g><g>
	<g>
		<path d="M256.276,7.627c-4.151,0-7.515,3.364-7.515,7.515v1.108c0,4.151,3.365,7.515,7.515,7.515c4.151,0,7.515-3.364,7.515-7.515    v-1.108C263.791,10.991,260.426,7.627,256.276,7.627z" data-original="#000000" class="active-path" data-old_color="#000000" fill="#008435"/>
	</g>
</g><g>
	<g>
		<path d="M403.418,47.351c-3.596-2.073-8.192-0.841-10.263,2.756l-0.553,0.959c-2.073,3.596-0.84,8.191,2.756,10.263    c1.183,0.682,2.473,1.006,3.746,1.006c2.598,0,5.126-1.35,6.517-3.762l0.553-0.959C408.248,54.018,407.013,49.423,403.418,47.351z    " data-original="#000000" class="active-path" data-old_color="#000000" fill="#008435"/>
	</g>
</g><g>
	<g>
		<path d="M481.335,172.451c-2.075-3.594-6.67-4.825-10.265-2.752l-0.958,0.553c-3.594,2.074-4.826,6.67-2.752,10.265    c1.393,2.411,3.918,3.759,6.516,3.759c1.273,0,2.566-0.325,3.749-1.007l0.958-0.553    C482.177,180.642,483.409,176.046,481.335,172.451z" data-original="#000000" class="active-path" data-old_color="#000000" fill="#008435"/>
	</g>
</g><g>
	<g>
		<path d="M510.991,155.326c-2.074-3.593-6.669-4.823-10.265-2.749l-0.959,0.555c-3.594,2.075-4.824,6.671-2.748,10.265    c1.392,2.41,3.917,3.757,6.514,3.757c1.276,0,2.568-0.325,3.751-1.008l0.959-0.555    C511.837,163.515,513.067,158.92,510.991,155.326z" data-original="#000000" class="active-path" data-old_color="#000000" fill="#008435"/>
	</g>
</g><g>
	<g>
		<path d="M71.546,186.418l-0.959-0.555c-3.593-2.071-8.19-0.846-10.265,2.749c-2.076,3.594-0.846,8.19,2.748,10.265l0.959,0.555    c1.184,0.683,2.476,1.008,3.751,1.008c2.596,0,5.122-1.348,6.514-3.757C76.372,193.089,75.14,188.493,71.546,186.418z" data-original="#000000" class="active-path" data-old_color="#000000" fill="#008435"/>
	</g>
</g><g>
	<g>
		<path d="M41.892,169.296l-0.958-0.554c-3.593-2.076-8.19-0.849-10.267,2.744c-2.077,3.593-0.849,8.19,2.744,10.267l0.958,0.554    c1.185,0.685,2.478,1.01,3.754,1.01c2.595,0,5.12-1.347,6.513-3.754C46.714,175.97,45.486,171.373,41.892,169.296z" data-original="#000000" class="active-path" data-old_color="#000000" fill="#008435"/>
	</g>
</g><g>
	<g>
		<path d="M12.228,152.169l-0.959-0.553c-3.596-2.073-8.192-0.841-10.263,2.756c-2.073,3.596-0.839,8.191,2.756,10.263l0.959,0.553    c1.183,0.682,2.473,1.006,3.746,1.006c2.598,0,5.126-1.35,6.517-3.762C17.057,158.837,15.823,154.242,12.228,152.169z" data-original="#000000" class="active-path" data-old_color="#000000" fill="#008435"/>
	</g>
</g><g>
	<g>
		<path d="M119.801,50.507l-0.555-0.959c-2.075-3.593-6.67-4.825-10.265-2.748c-3.594,2.075-4.824,6.671-2.749,10.265l0.555,0.959    c1.392,2.41,3.917,3.757,6.514,3.757c1.274,0,2.568-0.325,3.751-1.009C120.646,58.697,121.876,54.101,119.801,50.507z" data-original="#000000" class="active-path" data-old_color="#000000" fill="#008435"/>
	</g>
</g><g>
	<g>
		<path d="M420.654,489.346H295.959v-42.257c0-4.151-3.365-7.515-7.515-7.515c-4.151,0-7.515,3.364-7.515,7.515v42.257h-50.412    v-64.932h87.944c4.15,0,7.515-3.364,7.515-7.515v-35.674c0-4.151-3.365-7.515-7.515-7.515h-36.771v-30.487h36.771    c4.15,0,7.515-3.364,7.515-7.515v-18.934h57.683c4.151,0,7.515-3.364,7.515-7.515c0-4.151-3.364-7.515-7.515-7.515h-57.792    c-1.994-36.965-32.69-66.427-70.144-66.427c-10.791,0-21.145,2.384-30.779,7.085c-3.729,1.821-5.277,6.32-3.457,10.05    c1.82,3.728,6.316,5.277,10.05,3.457c7.562-3.691,15.699-5.563,24.186-5.563c30.45,0,55.223,24.773,55.223,55.223v22.624h-36.771    h-36.904h-36.771v-18.896c0-0.013,0.002-0.026,0.002-0.039c0-0.013-0.002-0.026-0.002-0.039v-3.651    c0-11.74,3.633-22.948,10.508-32.413c2.44-3.359,1.693-8.057-1.664-10.496c-3.359-2.44-8.057-1.694-10.496,1.664    c-8.001,11.015-12.54,23.883-13.263,37.42h-57.795c-4.15,0-7.515,3.364-7.515,7.515c0,4.151,3.365,7.515,7.515,7.515h57.68v18.934    c0,4.151,3.364,7.515,7.515,7.515h36.771v30.487h-36.771c-4.151,0-7.515,3.364-7.515,7.515v35.674    c0,4.151,3.364,7.515,7.515,7.515h22.502v64.932H90.792c-4.151,0-7.515,3.364-7.515,7.515c0,4.151,3.364,7.515,7.515,7.515h132.21    h65.442h132.21c4.151,0,7.515-3.364,7.515-7.515C428.168,492.71,424.805,489.346,420.654,489.346z M244.786,343.224h21.875v30.487    h-21.875V343.224z M200.5,409.385v-20.644h36.771h36.904h36.771v20.644H200.5z" data-original="#000000" class="active-path" data-old_color="#000000" fill="#008435"/>
	</g>
</g><g>
	<g>
		<path d="M256.276,178.853c-4.151,0-7.515,3.365-7.515,7.515v1.107c0,4.15,3.365,7.515,7.515,7.515    c4.151,0,7.515-3.364,7.515-7.515v-1.107C263.791,182.218,260.426,178.853,256.276,178.853z" data-original="#000000" class="active-path" data-old_color="#000000" fill="#008435"/>
	</g>
</g><g>
	<g>
		<path d="M256.276,144.608c-4.151,0-7.515,3.364-7.515,7.515v1.107c0,4.15,3.365,7.515,7.515,7.515    c4.151,0,7.515-3.364,7.515-7.515v-1.107C263.791,147.972,260.426,144.608,256.276,144.608z" data-original="#000000" class="active-path" data-old_color="#000000" fill="#008435"/>
	</g>
</g><g>
	<g>
		<path d="M256.276,110.364c-4.151,0-7.515,3.364-7.515,7.515v1.106c0,4.151,3.365,7.515,7.515,7.515    c4.151,0,7.515-3.364,7.515-7.515v-1.106C263.791,113.727,260.426,110.364,256.276,110.364z" data-original="#000000" class="active-path" data-old_color="#000000" fill="#008435"/>
	</g>
</g><g>
	<g>
		<path d="M256.276,76.118c-4.151,0-7.515,3.364-7.515,7.515v1.107c0,4.151,3.365,7.515,7.515,7.515    c4.151,0,7.515-3.364,7.515-7.515v-1.107C263.791,79.481,260.426,76.118,256.276,76.118z" data-original="#000000" class="active-path" data-old_color="#000000" fill="#008435"/>
	</g>
</g><g>
	<g>
		<path d="M317.811,195.638c-3.592-2.075-8.19-0.846-10.265,2.748l-0.555,0.959c-2.076,3.594-0.845,8.19,2.749,10.265    c1.184,0.684,2.476,1.009,3.751,1.009c2.596,0,5.122-1.348,6.514-3.757l0.555-0.959    C322.636,202.309,321.405,197.713,317.811,195.638z" data-original="#000000" class="active-path" data-old_color="#000000" fill="#008435"/>
	</g>
</g><g>
	<g>
		<path d="M334.929,165.979c-3.597-2.073-8.191-0.84-10.263,2.756l-0.553,0.959c-2.074,3.595-0.839,8.19,2.756,10.263    c1.183,0.682,2.473,1.006,3.746,1.006c2.598,0,5.126-1.35,6.517-3.762l0.553-0.959    C339.758,172.646,338.525,168.051,334.929,165.979z" data-original="#000000" class="active-path" data-old_color="#000000" fill="#008435"/>
	</g>
</g><g>
	<g>
		<path d="M352.057,136.324c-3.593-2.075-8.19-0.847-10.265,2.748l-0.555,0.959c-2.076,3.594-0.845,8.19,2.749,10.265    c1.184,0.684,2.476,1.009,3.751,1.009c2.596,0,5.122-1.348,6.514-3.757l0.555-0.959    C356.882,142.995,355.651,138.399,352.057,136.324z" data-original="#000000" class="active-path" data-old_color="#000000" fill="#008435"/>
	</g>
</g><g>
	<g>
		<path d="M369.178,106.667c-3.593-2.076-8.19-0.847-10.265,2.748l-0.555,0.959c-2.075,3.594-0.845,8.19,2.749,10.265    c1.184,0.684,2.476,1.009,3.751,1.009c2.596,0,5.122-1.348,6.514-3.757l0.555-0.959    C374.003,113.338,372.772,108.742,369.178,106.667z" data-original="#000000" class="active-path" data-old_color="#000000" fill="#008435"/>
	</g>
</g><g>
	<g>
		<path d="M386.301,77.011c-3.592-2.075-8.19-0.847-10.265,2.748l-0.555,0.959c-2.075,3.594-0.845,8.19,2.749,10.265    c1.184,0.684,2.476,1.009,3.751,1.009c2.596,0,5.122-1.348,6.514-3.757l0.555-0.959C391.125,83.682,389.895,79.086,386.301,77.011    z" data-original="#000000" class="active-path" data-old_color="#000000" fill="#008435"/>
	</g>
</g><g>
	<g>
		<path d="M362.709,240.944c-2.072-3.596-6.666-4.828-10.263-2.756l-0.959,0.553c-3.595,2.072-4.829,6.667-2.756,10.263    c1.391,2.413,3.918,3.762,6.517,3.762c1.274,0,2.564-0.324,3.746-1.006l0.959-0.553    C363.548,249.135,364.782,244.54,362.709,240.944z" data-original="#000000" class="active-path" data-old_color="#000000" fill="#008435"/>
	</g>
</g><g>
	<g>
		<path d="M392.364,223.816c-2.075-3.594-6.67-4.823-10.265-2.749l-0.959,0.555c-3.594,2.075-4.824,6.671-2.748,10.265    c1.392,2.41,3.917,3.757,6.514,3.757c1.274,0,2.568-0.325,3.751-1.008l0.959-0.555C393.209,232.006,394.44,227.41,392.364,223.816    z" data-original="#000000" class="active-path" data-old_color="#000000" fill="#008435"/>
	</g>
</g><g>
	<g>
		<path d="M422.019,206.693c-2.074-3.593-6.669-4.823-10.265-2.749l-0.959,0.555c-3.594,2.075-4.824,6.671-2.748,10.265    c1.392,2.41,3.917,3.757,6.514,3.757c1.274,0,2.568-0.325,3.751-1.008l0.959-0.555    C422.865,214.883,424.095,210.287,422.019,206.693z" data-original="#000000" class="active-path" data-old_color="#000000" fill="#008435"/>
	</g>
</g><g>
	<g>
		<path d="M451.677,189.571c-2.074-3.593-6.67-4.823-10.265-2.749l-0.959,0.555c-3.594,2.075-4.824,6.671-2.748,10.265    c1.392,2.41,3.917,3.757,6.514,3.757c1.274,0,2.568-0.325,3.751-1.008l0.959-0.555    C452.523,197.761,453.753,193.165,451.677,189.571z" data-original="#000000" class="active-path" data-old_color="#000000" fill="#008435"/>
	</g>
</g><g>
	<g>
		<path d="M160.513,237.782l-0.959-0.553c-3.596-2.074-8.192-0.841-10.263,2.756c-2.073,3.596-0.839,8.191,2.756,10.263l0.959,0.553    c1.183,0.682,2.473,1.006,3.746,1.006c2.598,0,5.126-1.35,6.517-3.762C165.342,244.449,164.108,239.854,160.513,237.782z" data-original="#000000" class="active-path" data-old_color="#000000" fill="#008435"/>
	</g>
</g><g>
	<g>
		<path d="M130.861,220.663l-0.959-0.555c-3.593-2.072-8.19-0.845-10.265,2.749c-2.077,3.594-0.846,8.19,2.748,10.265l0.959,0.555    c1.184,0.683,2.476,1.008,3.751,1.008c2.596,0,5.122-1.348,6.514-3.757C135.685,227.334,134.455,222.738,130.861,220.663z" data-original="#000000" class="active-path" data-old_color="#000000" fill="#008435"/>
	</g>
</g><g>
	<g>
		<path d="M101.204,203.54l-0.959-0.555c-3.593-2.072-8.19-0.846-10.265,2.749c-2.077,3.594-0.846,8.19,2.748,10.265l0.959,0.555    c1.184,0.683,2.476,1.008,3.751,1.008c2.596,0,5.122-1.348,6.514-3.757C106.029,210.211,104.798,205.615,101.204,203.54z" data-original="#000000" class="active-path" data-old_color="#000000" fill="#008435"/>
	</g>
</g><g>
	<g>
		<path d="M205.413,198.792l-0.555-0.959c-2.074-3.593-6.67-4.825-10.265-2.748c-3.594,2.075-4.824,6.671-2.749,10.265l0.555,0.959    c1.392,2.41,3.917,3.757,6.514,3.757c1.276,0,2.568-0.325,3.751-1.009C206.258,206.982,207.488,202.386,205.413,198.792z" data-original="#000000" class="active-path" data-old_color="#000000" fill="#008435"/>
	</g>
</g><g>
	<g>
		<path d="M188.293,169.14l-0.553-0.959c-2.071-3.596-6.666-4.828-10.263-2.756c-3.596,2.072-4.829,6.667-2.756,10.263l0.553,0.959    c1.391,2.413,3.918,3.762,6.517,3.762c1.273,0,2.564-0.324,3.746-1.006C189.132,177.331,190.366,172.736,188.293,169.14z" data-original="#000000" class="active-path" data-old_color="#000000" fill="#008435"/>
	</g>
</g><g>
	<g>
		<path d="M171.168,139.477l-0.555-0.959c-2.074-3.593-6.669-4.825-10.265-2.748c-3.594,2.075-4.824,6.671-2.749,10.265l0.555,0.959    c1.392,2.41,3.917,3.757,6.514,3.757c1.276,0,2.568-0.325,3.751-1.009C172.013,147.667,173.245,143.071,171.168,139.477z" data-original="#000000" class="active-path" data-old_color="#000000" fill="#008435"/>
	</g>
</g><g>
	<g>
		<path d="M154.046,109.822l-0.555-0.959c-2.074-3.593-6.67-4.824-10.265-2.748c-3.594,2.075-4.824,6.671-2.749,10.265l0.555,0.959    c1.392,2.41,3.917,3.757,6.514,3.757c1.274,0,2.568-0.325,3.751-1.009C154.891,118.011,156.121,113.416,154.046,109.822z" data-original="#000000" class="active-path" data-old_color="#000000" fill="#008435"/>
	</g>
</g><g>
	<g>
		<path d="M136.924,80.164l-0.555-0.959c-2.074-3.593-6.669-4.825-10.265-2.748c-3.594,2.075-4.824,6.671-2.749,10.265l0.555,0.959    c1.392,2.41,3.917,3.757,6.514,3.757c1.274,0,2.568-0.325,3.751-1.009C137.768,88.354,138.999,83.758,136.924,80.164z" data-original="#000000" class="active-path" data-old_color="#000000" fill="#008435"/>
	</g>
</g></g> </svg>
