<svg id="Capa_1" enable-background="new 0 0 512 512" height="512" viewBox="0 0 512 512" width="512" xmlns="http://www.w3.org/2000/svg"><g><g><path d="m210 256.195v71.869h46l10-35.934-10-35.935z" fill="#609797"/><path d="m256 256.195h46v71.868h-46z" fill="#4c7f7f"/></g><g><path d="m256 261.195h-74.875v-30h74.875l10 15z" fill="#78b0b0"/></g><g><path d="m256 231.195h74.875v30h-74.875z" fill="#609797"/></g><g><path d="m181.125 318.064v141.936h74.875l20-71.335-20-70.601z" fill="#78b0b0"/><path d="m256 318.064h74.875v141.936h-74.875z" fill="#609797"/></g><path d="m175.874 182.46s-18.616-74.842-49.324-105.551c-15.527-15.527-40.7-15.527-56.227 0s-15.527 40.7 0 56.227c30.709 30.708 105.551 49.324 105.551 49.324z" fill="#a7ebfd"/><path d="m336.125 182.461s74.842-18.616 105.551-49.324c15.527-15.527 15.527-40.7 0-56.227s-40.7-15.527-56.227 0c-30.708 30.709-49.324 105.551-49.324 105.551z" fill="#8ce2fd"/><path d="m219.519 433.099-.158-.158-.158-.158c-20.104-20.104-52.7-20.104-72.805 0l-.158.158-.158.158c-20.104 20.104-52.7 20.104-72.805 0l-.158-.158-.158-.158c-20.104-20.104-52.7-20.104-72.805 0l-.156.158v79.059h256l20-33.5-20-30.325c-13.201.021-26.409-5.004-36.481-15.076z" fill="#78e462"/><path d="m512 433.099-.316-.316c-20.104-20.104-52.7-20.104-72.805 0l-.158.158-.158.158c-20.104 20.104-52.7 20.104-72.805 0l-.158-.158-.158-.158c-20.104-20.104-52.7-20.104-72.805 0l-.158.158-.158.158c-10.032 10.032-23.175 15.056-36.323 15.076v63.825h256v-78.901z" fill="#6aca57"/><g><path d="m216.242 39.758c0 43.428 39.758 109.513 39.758 109.513l10-89.404-10-59.867c-21.958 0-39.758 17.8-39.758 39.758z" fill="#a7ebfd"/><path d="m256 0v149.271s39.758-66.085 39.758-109.513c0-21.958-17.8-39.758-39.758-39.758z" fill="#8ce2fd"/></g></g></svg>